<svg width="53" height="53" viewBox="0 0 53 53" fill="none" xmlns="http://www.w3.org/2000/svg">
<path d="M35.3713 3.66446C32.9593 4.917 31.1478 6.95626 30.3404 9.32677L30.1541 9.88575L22.7113 9.93751C14.4197 9.99962 14.9373 9.95821 13.4052 10.7449C12.5254 11.2004 11.2625 12.4219 10.7967 13.25C10.631 13.5606 9.67869 15.724 8.68494 18.0531L6.88376 22.2766L6.26267 22.701C5.02048 23.5395 4.17166 24.6574 3.64373 26.1066C3.38494 26.8313 3.36423 26.9555 3.33318 29.4502C3.30212 31.4584 3.33318 32.2037 3.44705 32.7731C3.76794 34.2947 4.64783 35.6922 5.86931 36.6445L6.57322 37.1828L6.62498 40.5574L6.67673 43.9424L6.95623 44.4703C7.37029 45.257 7.68084 45.5779 8.40544 45.9713L9.05759 46.3232H13.25H17.4424L18.0945 45.9713C18.8191 45.5779 19.1297 45.257 19.5437 44.4703L19.8232 43.9424L19.8543 41.0129L19.8853 38.0938H26.5103H33.125V40.8369C33.125 43.8803 33.2285 44.6774 33.7357 45.8057C34.8123 48.1244 37.2138 49.6875 39.75 49.6875C42.2033 49.6875 44.5634 48.2279 45.64 46.0645C46.406 44.5014 46.375 45.1432 46.375 31.7793V19.8129L46.9029 19.3057C50.0912 16.1899 50.5984 10.7139 48.0312 6.99766C47.1617 5.72442 45.5883 4.37872 44.1494 3.66446C43.2384 3.21934 42.6795 3.20899 42.0894 3.65411C41.4166 4.17169 41.4062 4.21309 41.4062 8.42618V12.2149L40.5781 12.6289L39.75 13.043L38.9218 12.6289L38.1041 12.2149L38.073 8.29161C38.042 4.51329 38.0316 4.34766 37.8246 4.07852C37.483 3.6127 37.1 3.38497 36.572 3.34356C36.1476 3.30216 35.9717 3.34356 35.3713 3.66446ZM45.3295 8.96446C46.0851 10.0824 46.3232 10.9313 46.3232 12.4219C46.3232 14.4715 45.7642 15.7344 44.1287 17.3492C43.6008 17.8668 43.1556 18.3119 43.1453 18.3326C43.1246 18.3533 43.0935 24.1295 43.0625 31.1582L43.0107 43.9424L42.7519 44.46C42.431 45.1225 41.7996 45.7436 41.1474 46.0645C40.723 46.2715 40.4642 46.3129 39.75 46.3129C38.9943 46.3129 38.7976 46.2715 38.3318 46.0334C37.6176 45.6607 37.0896 45.1225 36.7584 44.4186L36.4892 43.8389L36.4375 31.1582C36.3857 18.6949 36.3857 18.4672 36.1787 18.1566C36.0648 17.9703 35.7336 17.6391 35.4334 17.4113C34.8226 16.9248 34.067 15.9104 33.7047 15.0822C33.3941 14.3887 33.125 13.1361 33.125 12.4012C33.1353 11.1693 33.7254 9.43028 34.4293 8.60216L34.7295 8.23985L34.7812 11.0348L34.833 13.84L35.1228 14.2127C35.5162 14.7303 39.1289 16.5625 39.75 16.5625C40.0398 16.5625 40.6506 16.3141 42.0998 15.5895C43.166 15.0615 44.1494 14.5129 44.2736 14.3783C44.6773 13.9332 44.7187 13.6434 44.7187 10.8588C44.7187 9.38888 44.7394 8.17774 44.7601 8.17774C44.7912 8.17774 45.0396 8.5297 45.3295 8.96446ZM29.9885 14.1092C30.3197 16.0553 31.3445 18.0945 32.6488 19.3574L33.125 19.8129V20.6721V21.5313H21.9556H10.7863L12.2045 18.2291C12.9912 16.4072 13.7572 14.7613 13.9021 14.5543C14.2955 14.0367 14.8338 13.6537 15.4549 13.4363C15.9517 13.2707 16.5004 13.2604 22.9183 13.2811L29.8539 13.3018L29.9885 14.1092ZM33.125 29.8125V34.7813L21.0965 34.7606L9.05759 34.7295L8.52966 34.45C7.74294 34.0359 7.42205 33.7254 7.02869 33.0008L6.67673 32.3486V29.8125C6.67673 27.3178 6.67673 27.266 6.93552 26.7588C7.38064 25.8686 8.22947 25.1647 9.16111 24.9369C9.33709 24.8955 14.7924 24.8645 21.3035 24.8541L33.125 24.8438V29.8125ZM16.5625 40.5781V43.0625H13.25H9.93748V40.5781V38.0938H13.25H16.5625V40.5781Z" fill="white"/>
<path d="M39.0254 41.5926C38.2697 42.0066 37.9488 42.8555 38.249 43.6422C38.5078 44.3254 39.0047 44.667 39.7603 44.667C40.4021 44.667 40.7334 44.491 41.1371 43.9527C41.4373 43.549 41.4373 42.576 41.1371 42.1723C40.6092 41.458 39.7189 41.2096 39.0254 41.5926Z" fill="black"/>
<path d="M12.4736 26.5932C11.5213 26.8416 10.6828 27.5248 10.248 28.415C9.89609 29.1293 9.88574 30.4646 10.2273 31.1582C10.5793 31.8932 11.0037 32.3383 11.718 32.7213C12.3184 33.0422 12.4426 33.0732 13.25 33.0629C13.9953 33.0629 14.2127 33.0215 14.6578 32.7937C15.4342 32.3797 15.7654 32.0691 16.1588 31.3445C16.4797 30.7441 16.5107 30.6199 16.5107 29.8125C16.5107 29.0051 16.4797 28.8809 16.1588 28.2805C15.5687 27.2039 14.6682 26.6242 13.4674 26.5518C13.0947 26.5311 12.6496 26.5414 12.4736 26.5932Z" fill="white"/>
<path d="M20.8584 28.3012C20.1648 28.6014 19.7715 29.3984 19.9164 30.1748C20.0096 30.6613 20.5271 31.2307 20.993 31.3652C21.2414 31.4377 22.6492 31.4687 25.0715 31.448C28.6117 31.417 28.7773 31.4066 29.0465 31.1996C29.5951 30.7959 29.7607 30.4646 29.7607 29.8125C29.7607 29.1603 29.5951 28.8291 29.0465 28.4254C28.7773 28.2184 28.6221 28.208 24.968 28.1873C21.966 28.1666 21.1068 28.1873 20.8584 28.3012Z" fill="white"/>
</svg>
